<svg width="535" height="546" viewBox="0 0 535 546" fill="none" xmlns="http://www.w3.org/2000/svg">
<path d="M283 543.5H463.5V284.5H526.5L451 232V164.5H384.5V192L271 119.5L9 284.5H73V543.5H260.5" stroke="black" stroke-width="5" stroke-linecap="round"/>
<path d="M261 545V387.5M261 387.5C261 387.5 267.5 352.5 275.5 336.5C283.5 320.5 290 309 312.5 293.5C335 278 347.5 278 347.5 278C347.5 278 355 294.5 356 325.5C357 356.5 347.5 372 347.5 372C347.5 372 344 390 322 411C300 432 281.5 431.5 281.5 431.5L288.5 406M261 387.5C261 387.5 249.763 365.424 238 355.5C221.755 341.795 187 336.5 187 336.5C187 336.5 181.5 356.5 181 372C180.5 387.5 184.5 401 187 406C189.5 411 195 418.5 214 431.5C233 444.5 250.5 444.5 250.5 444.5L235.5 416L226 401M288.5 406L296 387.5M288.5 406L281.5 380M296 387.5L303 365M296 387.5L322 375.5M303 365L310.011 352M303 365L296 341M327 320.5L310.011 352M310.011 352L333 341M226 401L218 387.5L200.5 362M226 401L205.5 396.5M220 387.5L226 372M238 416L240.5 387.5" stroke="black" stroke-width="5"/>
<circle cx="110.5" cy="81.5" r="30" stroke="black" stroke-width="5"/>
<path d="M110 3V36.5M167.5 27L144 49M190.5 84H155M166 140L144 118M110 164V130.5M53 140L77 116.5M30 84H64M53 25.5L77 49" stroke="black" stroke-width="5" stroke-linecap="round"/>
</svg>
